<svg xmlns="http://www.w3.org/2000/svg" xmlns:xlink="http://www.w3.org/1999/xlink" contentStyleType="text/css" height="654px" preserveAspectRatio="none" style="width:683px;height:654px;background:#FFFFFF;" version="1.1" viewBox="0 0 683 654" width="683px" zoomAndPan="magnify"><title>UserContextGuard &#8212; guest OR verified session (ADR-0012 &#167;2)</title><defs/><g><text fill="#000000" font-family="sans-serif" font-size="14" font-weight="bold" lengthAdjust="spacing" textLength="488.168" x="95.9348" y="32.9951">UserContextGuard &#8212; guest OR verified session (ADR-0012 &#167;2)</text><ellipse cx="203.106" cy="57.2969" fill="#222222" rx="10" ry="10" style="stroke:#222222;stroke-width:1.0;"/><rect fill="#F1F1F1" height="47.9375" rx="12.5" ry="12.5" style="stroke:#181818;stroke-width:0.5;" width="244.5078" x="80.8521" y="87.2969"/><text fill="#000000" font-family="sans-serif" font-size="12" lengthAdjust="spacing" textLength="224.5078" x="90.8521" y="108.4355">Incoming request to a Nest controller</text><text fill="#000000" font-family="sans-serif" font-size="12" lengthAdjust="spacing" textLength="165.7207" x="90.8521" y="122.4043">(behind UserContextGuard)</text><rect fill="#F1F1F1" height="47.9375" rx="12.5" ry="12.5" style="stroke:#181818;stroke-width:0.5;" width="248.1289" x="79.0415" y="203.6367"/><text fill="#000000" font-family="sans-serif" font-size="12" lengthAdjust="spacing" textLength="199.4824" x="89.0415" y="224.7754">auth.api.getSession({ headers })</text><text fill="#000000" font-family="sans-serif" font-size="12" lengthAdjust="spacing" textLength="228.1289" x="89.0415" y="238.7441">(single indexed DB read on `session`)</text><path d="M364.4526,324.3945 L364.4526,332.9609 L344.4526,336.9609 L364.4526,340.9609 L364.4526,349.5273 A0,0 0 0 0 364.4526,349.5273 L629.0376,349.5273 A0,0 0 0 0 629.0376,349.5273 L629.0376,334.3945 L619.0376,324.3945 L364.4526,324.3945 A0,0 0 0 0 364.4526,324.3945 " fill="#FEFFDD" style="stroke:#181818;stroke-width:0.5;"/><path d="M619.0376,324.3945 L619.0376,334.3945 L629.0376,334.3945 L619.0376,324.3945 " fill="#FEFFDD" style="stroke:#181818;stroke-width:0.5;"/><text fill="#000000" font-family="sans-serif" font-size="13" lengthAdjust="spacing" textLength="243.585" x="370.4526" y="341.4614">do NOT mint / touch the guest cookie</text><rect fill="#F1F1F1" height="33.9688" rx="12.5" ry="12.5" style="stroke:#181818;stroke-width:0.5;" width="282.6934" x="61.7593" y="319.9766"/><text fill="#000000" font-family="sans-serif" font-size="12" lengthAdjust="spacing" textLength="262.6934" x="71.7593" y="341.1152">userId = session.user.id  (AUTHENTICATED)</text><ellipse cx="203.106" cy="393.4609" fill="none" rx="11" ry="11" style="stroke:#222222;stroke-width:1.0;"/><ellipse cx="203.106" cy="393.4609" fill="#222222" rx="6" ry="6" style="stroke:#222222;stroke-width:1.0;"/><polygon fill="#F1F1F1" points="164.9067,271.5742,241.3052,271.5742,253.3052,283.5742,241.3052,295.5742,164.9067,295.5742,152.9067,283.5742,164.9067,271.5742" style="stroke:#181818;stroke-width:0.5;"/><text fill="#000000" font-family="sans-serif" font-size="11" lengthAdjust="spacing" textLength="19.0083" x="207.106" y="305.7847">yes</text><text fill="#000000" font-family="sans-serif" font-size="11" lengthAdjust="spacing" textLength="76.3984" x="164.9067" y="287.3823">session valid?</text><text fill="#000000" font-family="sans-serif" font-size="11" lengthAdjust="spacing" textLength="69.0508" x="253.3052" y="280.98">no / revoked</text><polygon fill="#F1F1F1" points="104.3879,155.2344,301.824,155.2344,313.824,167.2344,301.824,179.2344,104.3879,179.2344,92.3879,167.2344,104.3879,155.2344" style="stroke:#181818;stroke-width:0.5;"/><text fill="#000000" font-family="sans-serif" font-size="11" lengthAdjust="spacing" textLength="19.0083" x="207.106" y="189.4448">yes</text><text fill="#000000" font-family="sans-serif" font-size="11" lengthAdjust="spacing" textLength="197.436" x="104.3879" y="171.0425">better-auth session cookie present?</text><text fill="#000000" font-family="sans-serif" font-size="11" lengthAdjust="spacing" textLength="13.7017" x="313.824" y="164.6401">no</text><polygon fill="#F1F1F1" points="203.106,446.4609,215.106,458.4609,203.106,470.4609,191.106,458.4609,203.106,446.4609" style="stroke:#181818;stroke-width:0.5;"/><polygon fill="#F1F1F1" points="107.8604,490.4609,298.3516,490.4609,310.3516,502.4609,298.3516,514.4609,107.8604,514.4609,95.8604,502.4609,107.8604,490.4609" style="stroke:#181818;stroke-width:0.5;"/><text fill="#000000" font-family="sans-serif" font-size="11" lengthAdjust="spacing" textLength="190.4912" x="107.8604" y="506.269">valid guest cookie? (HMAC, no I/O)</text><text fill="#000000" font-family="sans-serif" font-size="11" lengthAdjust="spacing" textLength="19.0083" x="76.8521" y="499.8667">yes</text><text fill="#000000" font-family="sans-serif" font-size="11" lengthAdjust="spacing" textLength="13.7017" x="310.3516" y="499.8667">no</text><rect fill="#F1F1F1" height="33.9688" rx="12.5" ry="12.5" style="stroke:#181818;stroke-width:0.5;" width="149.7207" x="11" y="524.4609"/><text fill="#000000" font-family="sans-serif" font-size="12" lengthAdjust="spacing" textLength="129.7207" x="21" y="545.5996">userId = guest userId</text><ellipse cx="85.8604" cy="604.4297" fill="none" rx="11" ry="11" style="stroke:#222222;stroke-width:1.0;"/><ellipse cx="85.8604" cy="604.4297" fill="#222222" rx="6" ry="6" style="stroke:#222222;stroke-width:1.0;"/><rect fill="#F1F1F1" height="61.9063" rx="12.5" ry="12.5" style="stroke:#181818;stroke-width:0.5;" width="237.1602" x="201.7715" y="524.4609"/><text fill="#000000" font-family="sans-serif" font-size="12" lengthAdjust="spacing" textLength="140.0684" x="211.7715" y="545.5996">mint fresh guest userId</text><text fill="#000000" font-family="sans-serif" font-size="12" lengthAdjust="spacing" textLength="182.4023" x="211.7715" y="559.5684">+ set se_guest_session cookie</text><text fill="#000000" font-family="sans-serif" font-size="12" lengthAdjust="spacing" textLength="217.1602" x="211.7715" y="573.5371">(httpOnly; SameSite=None; Secure)</text><ellipse cx="320.3516" cy="632.3672" fill="none" rx="11" ry="11" style="stroke:#222222;stroke-width:1.0;"/><ellipse cx="320.3516" cy="632.3672" fill="#222222" rx="6" ry="6" style="stroke:#222222;stroke-width:1.0;"/><line style="stroke:#181818;stroke-width:1.0;" x1="203.106" x2="203.106" y1="67.2969" y2="87.2969"/><polygon fill="#181818" points="199.106,77.2969,203.106,87.2969,207.106,77.2969,203.106,81.2969" style="stroke:#181818;stroke-width:1.0;"/><line style="stroke:#181818;stroke-width:1.0;" x1="203.106" x2="203.106" y1="353.9453" y2="382.4609"/><polygon fill="#181818" points="199.106,372.4609,203.106,382.4609,207.106,372.4609,203.106,376.4609" style="stroke:#181818;stroke-width:1.0;"/><line style="stroke:#181818;stroke-width:1.0;" x1="203.106" x2="203.106" y1="295.5742" y2="319.9766"/><polygon fill="#181818" points="199.106,309.9766,203.106,319.9766,207.106,309.9766,203.106,313.9766" style="stroke:#181818;stroke-width:1.0;"/><line style="stroke:#181818;stroke-width:1.0;" x1="253.3052" x2="639.0376" y1="283.5742" y2="283.5742"/><polygon fill="#181818" points="635.0376,352.4609,639.0376,362.4609,643.0376,352.4609,639.0376,356.4609" style="stroke:#181818;stroke-width:1.0;"/><line style="stroke:#181818;stroke-width:1.0;" x1="639.0376" x2="639.0376" y1="283.5742" y2="426.4609"/><line style="stroke:#181818;stroke-width:1.0;" x1="639.0376" x2="203.106" y1="426.4609" y2="426.4609"/><line style="stroke:#181818;stroke-width:1.0;" x1="203.106" x2="203.106" y1="426.4609" y2="446.4609"/><polygon fill="#181818" points="199.106,436.4609,203.106,446.4609,207.106,436.4609,203.106,440.4609" style="stroke:#181818;stroke-width:1.0;"/><line style="stroke:#181818;stroke-width:1.0;" x1="203.106" x2="203.106" y1="251.5742" y2="271.5742"/><polygon fill="#181818" points="199.106,261.5742,203.106,271.5742,207.106,261.5742,203.106,265.5742" style="stroke:#181818;stroke-width:1.0;"/><line style="stroke:#181818;stroke-width:1.0;" x1="203.106" x2="203.106" y1="179.2344" y2="203.6367"/><polygon fill="#181818" points="199.106,193.6367,203.106,203.6367,207.106,193.6367,203.106,197.6367" style="stroke:#181818;stroke-width:1.0;"/><line style="stroke:#181818;stroke-width:1.0;" x1="313.824" x2="657.0376" y1="167.2344" y2="167.2344"/><polygon fill="#181818" points="653.0376,304.9922,657.0376,314.9922,661.0376,304.9922,657.0376,308.9922" style="stroke:#181818;stroke-width:1.0;"/><line style="stroke:#181818;stroke-width:1.0;" x1="657.0376" x2="657.0376" y1="167.2344" y2="458.4609"/><line style="stroke:#181818;stroke-width:1.0;" x1="657.0376" x2="215.106" y1="458.4609" y2="458.4609"/><polygon fill="#181818" points="225.106,454.4609,215.106,458.4609,225.106,462.4609,221.106,458.4609" style="stroke:#181818;stroke-width:1.0;"/><line style="stroke:#181818;stroke-width:1.0;" x1="203.106" x2="203.106" y1="135.2344" y2="155.2344"/><polygon fill="#181818" points="199.106,145.2344,203.106,155.2344,207.106,145.2344,203.106,149.2344" style="stroke:#181818;stroke-width:1.0;"/><line style="stroke:#181818;stroke-width:1.0;" x1="85.8604" x2="85.8604" y1="558.4297" y2="593.4297"/><polygon fill="#181818" points="81.8604,583.4297,85.8604,593.4297,89.8604,583.4297,85.8604,587.4297" style="stroke:#181818;stroke-width:1.0;"/><line style="stroke:#181818;stroke-width:1.0;" x1="320.3516" x2="320.3516" y1="586.3672" y2="621.3672"/><polygon fill="#181818" points="316.3516,611.3672,320.3516,621.3672,324.3516,611.3672,320.3516,615.3672" style="stroke:#181818;stroke-width:1.0;"/><line style="stroke:#181818;stroke-width:1.0;" x1="95.8604" x2="85.8604" y1="502.4609" y2="502.4609"/><line style="stroke:#181818;stroke-width:1.0;" x1="85.8604" x2="85.8604" y1="502.4609" y2="524.4609"/><polygon fill="#181818" points="81.8604,514.4609,85.8604,524.4609,89.8604,514.4609,85.8604,518.4609" style="stroke:#181818;stroke-width:1.0;"/><line style="stroke:#181818;stroke-width:1.0;" x1="310.3516" x2="320.3516" y1="502.4609" y2="502.4609"/><line style="stroke:#181818;stroke-width:1.0;" x1="320.3516" x2="320.3516" y1="502.4609" y2="524.4609"/><polygon fill="#181818" points="316.3516,514.4609,320.3516,524.4609,324.3516,514.4609,320.3516,518.4609" style="stroke:#181818;stroke-width:1.0;"/><line style="stroke:#181818;stroke-width:1.0;" x1="203.106" x2="203.106" y1="470.4609" y2="490.4609"/><polygon fill="#181818" points="199.106,480.4609,203.106,490.4609,207.106,480.4609,203.106,484.4609" style="stroke:#181818;stroke-width:1.0;"/><!--SRC=[RP71Jjj048RlVeh_XYt0K8v128K4bHoQI2JSa63ZdSGhpAwxEmwWgb8Vek_Gz-YZz4awQoT00WTBk-j_vl_cdptqXzU7nyTVJl3tpmd-_VgDcq1-u2pJCtzjbDSzS4a8nYuhGbsfWj28PAHX0YYmcbScbAGFaZrOzmHL55IpoA6m8cyMXZJcn4p-K3LS8b08nbbChaMnRAG5s3sGpHCsB1wx02rLfvEIrvQRDkdx2R8a4IBFIMza2_SOAJnzNtk8tJYU2cdkNLMHlxNfd4fZzGVJx3Gn2wIVSHVEFHY9mbCWo-TPp4SmNYXa2T2BsbpL9byIJxkIz0TAKffymCzCFDTXYYyzooJ32u5K6jBxVcroB_v09DYuhbHbzAwPsArtSRR1o-D3RZGac9lPrULuDXhqPvV3jY5aGqpmPbbo3zfXF9b1Kc8SIJvDKRQxxhBkncoB0hjQ3bG5GcgTY3sjP6KwCf3LPf5i_cL9Tu_eBV9MjtEaLz_wWmF1mEXeakrczpfCLzHT8tXByEOXqfPw8JiejyItTb-IOFdkskUxxQr9-2LpFR7Looccwf6cXkbix2p9bOh6K_Pc5mVv3m00]--></g></svg>